Coordinates
version=1
nRows=18
nColumns=38
inDegrees=yes

Units are S.I. units (second, meters, Newtons, ...)
Angles are in degrees.

endheader
time	pelvis_tilt	pelvis_list	pelvis_rotation	pelvis_tx	pelvis_ty	pelvis_tz	hip_flexion_r	hip_adduction_r	hip_rotation_r	knee_angle_r	ankle_angle_r	subtalar_angle_r	mtp_angle_r	hip_flexion_l	hip_adduction_l	hip_rotation_l	knee_angle_l	ankle_angle_l	subtalar_angle_l	mtp_angle_l	lumbar_extension	lumbar_bending	lumbar_rotation	arm_flex_r	arm_add_r	arm_rot_r	elbow_flex_r	pro_sup_r	wrist_flex_r	wrist_dev_r	arm_flex_l	arm_add_l	arm_rot_l	elbow_flex_l	pro_sup_l	wrist_flex_l	wrist_dev_l
      2.38000000	      1.10009300	      2.68323990	      7.05390290	      0.07969324	      0.90044509	      0.18284368	     27.53131758	     -2.64603010	    -12.39016148	    -11.89098334	      1.65587363	      4.02454180	      9.92713087	    -17.44926291	      4.67882634	      6.66155021	    -13.95850302	     12.19580339	      7.70685348	      7.27118998	     -8.03945878	     -2.18525287	    -11.08076107	     -7.07432170	    -13.22325269	     13.04895048	      6.62624097	     86.51662706	      0.00000000	      0.00000000	      6.92575654	    -23.08580047	     16.07976139	     43.38228777	     86.51662706	      0.00000000	      0.00000000
      2.39000000	      1.14302723	      2.61212042	      7.15263140	      0.09485902	      0.89887546	      0.18307797	     27.55938437	     -2.45406806	    -12.29941067	    -13.11145473	      1.10133847	      2.71100809	      9.80471201	    -17.89304993	      4.37712505	      6.37504820	    -14.95096935	     11.62880865	      8.47240014	      8.77349250	     -7.88018199	     -2.07062360	    -11.14965100	     -7.12572657	    -13.22674332	     13.34057059	      6.56133362	     86.51662706	      0.00000000	      0.00000000	      6.59516055	    -23.05824163	     15.82743689	     43.64764880	     86.51662706	      0.00000000	      0.00000000
      2.40000000	      1.14909876	      2.47908724	      7.23060455	      0.11024207	      0.89721748	      0.18326323	     27.59074409	     -2.17627988	    -12.07881845	    -14.53380834	      0.19758618	      1.06380195	      9.65112283	    -18.19893401	      4.00577147	      5.98622473	    -16.10036532	     10.88092912	      9.32205824	     10.59580123	     -7.65208173	     -1.86836940	    -11.16675217	     -7.18419493	    -13.26685286	     13.61982007	      6.53700412	     86.51662706	      0.00000000	      0.00000000	      6.20783340	    -22.97803502	     15.58126861	     43.80024449	     86.51662706	      0.00000000	      0.00000000
      2.41000000	      1.12811605	      2.25160858	      7.27087591	      0.12577459	      0.89548400	      0.18345810	     27.66011034	     -1.77933040	    -11.73071898	    -16.06100987	     -1.03956860	     -0.78711922	      9.45850222	    -18.35579718	      3.53626881	      5.50059697	    -17.41452483	      9.88894777	     10.21637676	     12.71561979	     -7.36985915	     -1.54079902	    -11.10882890	     -7.23959764	    -13.34514782	     13.87438608	      6.55475688	     86.51662706	      0.00000000	      0.00000000	      5.78077622	    -22.83412720	     15.33935509	     43.82957061	     86.51662706	      0.00000000	      0.00000000
      2.42000000	      1.09740225	      1.89634652	      7.25911852	      0.14137085	      0.89386542	      0.18375198	     27.79324564	     -1.23903405	    -11.25484963	    -17.63348552	     -2.53386619	     -2.71141333	      9.22769808	    -18.35177137	      2.94465845	      4.92989289	    -18.90678771	      8.57709008	     11.10494602	     15.07544411	     -7.05568995	     -1.05606034	    -10.96008503	     -7.27873992	    -13.46228129	     14.09076270	      6.61828108	     86.51662706	      0.00000000	      0.00000000	      5.32974649	    -22.61796103	     15.10061381	     43.72704421	     86.51662706	      0.00000000	      0.00000000
      2.43000000	      1.06940156	      1.38999807	      7.18781905	      0.15690772	      0.89267427	      0.18420305	     27.98662125	     -0.54175750	    -10.65453549	    -19.22765462	     -4.15431940	     -4.58902865	      8.96769751	    -18.17354476	      2.22066830	      4.29213848	    -20.59211920	      6.86784827	     11.93176335	     17.58284521	     -6.73286370	     -0.39814995	    -10.71634285	     -7.28860911	    -13.61782134	     14.25516815	      6.73340002	     86.51662706	      0.00000000	      0.00000000	      4.86620058	    -22.32638406	     14.86596466	     43.48708904	     86.51662706	      0.00000000	      0.00000000
      2.44000000	      1.04725295	      0.73149258	      7.05792907	      0.17230025	      0.89211353	      0.18477371	     28.20514050	      0.31420229	     -9.94720883	    -20.83310869	     -5.73603907	     -6.31878978	      8.69220910	    -17.80872202	      1.37339618	      3.61206327	    -22.48334905	      4.69859806	     12.64127060	     20.11561158	     -6.42044577	      0.42546725	    -10.38591740	     -7.25930492	    -13.80974354	     14.35461793	      6.90778908	     86.51662706	      0.00000000	      0.00000000	      4.39645974	    -21.96397075	     14.63947620	     43.10778312	     86.51662706	      0.00000000	      0.00000000
      2.45000000	      1.03046328	     -0.05330083	      6.87732878	      0.18758299	      0.89210938	      0.18536968	     28.39805978	      1.31415414	     -9.17252578	    -22.42250839	     -7.10939488	     -7.82396689	      8.41503229	    -17.24884146	      0.42966451	      2.92224357	    -24.58833965	      2.04153683	     13.18382108	     22.53202351	     -6.13127887	      1.38221927	     -9.98723947	     -7.18561873	    -14.03373886	     14.37808585	      7.15049798	     86.51662706	      0.00000000	      0.00000000	      3.92360302	    -21.54366015	     14.42921274	     42.59082587	     86.51662706	      0.00000000	      0.00000000
      2.46000000	      1.01860456	     -0.91778451	      6.65827220	      0.20284153	      0.89239226	      0.18594706	     28.51542924	      2.42371308	     -8.39200582	    -23.93840237	     -8.12919122	     -9.05432715	      8.14615803	    -16.49013195	     -0.57360518	      2.26419870	    -26.90833149	     -1.07713530	     13.51964111	     24.68546056	     -5.87348875	      2.42039257	     -9.54441738	     -7.06691409	    -14.28282246	     14.31767730	      7.47127038	     86.51662706	      0.00000000	      0.00000000	      3.45131955	    -21.08498729	     14.24763498	     41.94074709	     86.51662706	      0.00000000	      0.00000000
      2.47000000	      1.00832943	     -1.80753878	      6.41696745	      0.21805854	      0.89272574	      0.18654238	     28.51486453	      3.59229116	     -7.67881160	    -25.30585559	     -8.69771924	     -9.98481004	      7.88957551	    -15.53233728	     -1.59771415	      1.68747554	    -29.43792063	     -4.56379429	     13.62100793	     26.44165873	     -5.65363576	      3.48098407	     -9.08248780	     -6.90582104	    -14.54772468	     14.16971564	      7.87961922	     86.51662706	      0.00000000	      0.00000000	      2.98786439	    -20.61012329	     14.11153546	     41.16352806	     86.51662706	      0.00000000	      0.00000000
      2.48000000	      0.99287187	     -2.67423507	      6.17532237	      0.23308168	      0.89305181	      0.18720275	     28.36424337	      4.76177696	     -7.10147382	    -26.45719369	     -8.77779445	    -10.61172946	      7.64283805	    -14.37760699	     -2.60660022	      1.24512294	    -32.16634603	     -8.25456754	     13.47307937	     27.69615887	     -5.47913093	      4.51091738	     -8.62387022	     -6.70667998	    -14.81819714	     13.93560565	      8.38366530	     86.51662706	      0.00000000	      0.00000000	      2.54813400	    -20.13903608	     14.04151900	     40.26506378	     86.51662706	      0.00000000	      0.00000000
      2.49000000	      0.96876769	     -3.48563057	      5.96140356	      0.24774092	      0.89345389	      0.18791993	     28.04508689	      5.87508695	     -6.70858889	    -27.35110089	     -8.39377845	    -10.94803421	      7.39809193	    -13.03027952	     -3.56707440	      0.98587978	    -35.07823092	    -11.92642502	     13.07418380	     28.38899903	     -5.35848087	      5.47233948	     -8.18658149	     -6.47445805	    -15.08491836	     13.62231473	      8.98888886	     86.51662706	      0.00000000	      0.00000000	      2.15282862	    -19.68566203	     14.06096063	     39.25003439	     86.51662706	      0.00000000	      0.00000000
      2.50000000	      0.94196179	     -4.22663827	      5.80608913	      0.26195878	      0.89404272	      0.18862958	     27.55365013	      6.88306766	     -6.52078720	    -27.97871831	     -7.62099022	    -11.01897567	      7.14421797	    -11.49782929	     -4.44797576	      0.94538531	    -38.15186442	    -15.32269893	     12.43618603	     28.51371939	     -5.29954324	      6.34472433	     -7.78374218	     -6.21429614	    -15.34135239	     13.24232759	      9.69708921	     86.51662706	      0.00000000	      0.00000000	      1.82500267	    -19.25654394	     14.19432592	     38.12167470	     86.51662706	      0.00000000	      0.00000000
      2.51000000	      0.92580205	     -4.89094617	      5.73712609	      0.27576071	      0.89489405	      0.18923926	     26.89776089	      7.75060642	     -6.53170471	    -28.35791021	     -6.56678275	    -10.85860843	      6.86963915	     -9.79315392	     -5.22035992	      1.13936795	    -41.35486679	    -18.18992844	     11.58489944	     28.11845696	     -5.30718156	      7.12027653	     -7.42353968	     -5.93136444	    -15.58485598	     12.81298667	     10.50587161	     86.51662706	      0.00000000	      0.00000000	      1.58525969	    -18.85218212	     14.46483154	     36.88264300	     86.51662706	      0.00000000	      0.00000000
      2.52000000	      0.93300141	     -5.47080934	      5.77333806	      0.28922108	      0.89605223	      0.18964922	     26.09175329	      8.46025801	     -6.71506248	    -28.52040125	     -5.34855196	    -10.50684857	      6.56518348	     -7.93685965	     -5.85785839	      1.56083805	    -44.63903674	    -20.31934953	     10.55978574	     27.29837696	     -5.38169158	      7.79622863	     -7.10914065	     -5.63067187	    -15.81661272	     12.35522750	     11.40883708	     86.51662706	      0.00000000	      0.00000000	      1.44714314	    -18.47012094	     14.89161446	     35.53681780	     86.51662706	      0.00000000	      0.00000000
      2.53000000	      0.96895280	     -5.95408245	      5.92068538	      0.30240693	      0.89754114	      0.18978816	     25.15207214	      9.01089420	     -7.03347905	    -28.49818086	     -4.07400874	    -10.00670135	      6.22636300	     -5.95688043	     -6.33582434	      2.18173670	    -47.93701217	    -21.58377828	      9.41175682	     26.18070545	     -5.51848194	      8.36834495	     -6.83852936	     -5.31680533	    -16.04048672	     11.89182933	     12.39641748	     86.51662706	      0.00000000	      0.00000000	      1.41394377	    -18.10818992	     15.48677685	     34.09153705	     86.51662706	      0.00000000	      0.00000000
      2.54000000	      1.03082382	     -6.32875359	      6.17067973	      0.31535491	      0.89935101	      0.18966322	     24.09484940	      9.41234933	     -7.44571415	    -28.31491110	     -2.82761782	     -9.40141358	      5.85456319	     -3.88504214	     -6.63097204	      2.95838083	    -51.16354932	    -21.96008016	      8.19812031	     24.90559766	     -5.70864516	      8.82840530	     -6.60450696	     -4.99383625	    -16.26136243	     11.44538372	     13.45711116	     86.51662706	      0.00000000	      0.00000000	      1.47748474	    -17.76653269	     16.25279677	     32.55963207	     86.51662706	      0.00000000	      0.00000000
      2.55000000	      1.11031859	     -6.58774464	      6.50125177	      0.32807902	      0.90143323	      0.18935985	     22.93583455	      9.67963692	     -7.91098009	    -27.98466035	     -1.66483646	     -8.73165080	      5.45691358	     -1.75391629	     -6.72466238	      3.83904250	    -54.22347879	    -21.53000503	      6.97487407	     23.60710736	     -5.93985026	      9.16594686	     -6.39515105	     -4.66556340	    -16.48369340	     11.03622173	     14.57881341	     86.51662706	      0.00000000	      0.00000000	      1.61890355	    -17.44782563	     17.18079515	     30.96064070	     86.51662706	      0.00000000	      0.00000000
